<?xml version="1.0" encoding="iso-8859-1"?>
<!-- Generator: Adobe Illustrator 18.0.0, SVG Export Plug-In . SVG Version: 6.00 Build 0)  -->
<!DOCTYPE svg PUBLIC "-//W3C//DTD SVG 1.1//EN" "http://www.w3.org/Graphics/SVG/1.1/DTD/svg11.dtd">
<svg version="1.1" id="Capa_1" xmlns="http://www.w3.org/2000/svg" xmlns:xlink="http://www.w3.org/1999/xlink" x="0px" y="0px"
	 viewBox="0 0 415.295 415.295" style="enable-background:new 0 0 415.295 415.295;" xml:space="preserve">
<g>
	<path d="M81.498,277.735h252.299c5.522,0,10-4.477,10-10v-167.29c0-5.523-4.478-10-10-10H81.498c-5.522,0-10,4.477-10,10v167.29
		C71.498,273.258,75.976,277.735,81.498,277.735z M91.498,110.446h232.299v147.29H91.498V110.446z"/>
	<path d="M405.295,297.474h-28.589V70.72c0-5.523-4.478-10-10-10H48.589c-5.522,0-10,4.477-10,10v226.753H10
		c-5.522,0-10,4.477-10,10c0,25.972,21.13,47.101,47.102,47.101h321.092c25.972,0,47.102-21.129,47.102-47.101
		C415.295,301.951,410.817,297.474,405.295,297.474z M368.193,334.575H47.102c-11.414,0-21.202-7.092-25.189-17.101h162.431
		c0.247,5.304,4.612,9.531,9.976,9.531h26.656c5.364,0,9.73-4.227,9.976-9.531h162.431
		C389.396,327.483,379.607,334.575,368.193,334.575z M356.706,80.72v216.753H58.589V80.72H356.706z"/>
	<path d="M206.915,187.948c16.771,0,30.415-13.645,30.415-30.416s-13.645-30.415-30.415-30.415S176.5,140.762,176.5,157.533
		S190.145,187.948,206.915,187.948z M206.915,147.118c5.743,0,10.415,4.672,10.415,10.415c0,5.743-4.672,10.416-10.415,10.416
		s-10.415-4.672-10.415-10.416C196.5,151.79,201.172,147.118,206.915,147.118z"/>
	<path d="M218.6,188.363h-21.904c-18.143,0-32.903,14.76-32.903,32.903v10.381c0,5.523,4.478,10,10,10h67.711
		c5.522,0,10-4.477,10-10v-10.381C251.503,203.124,236.742,188.363,218.6,188.363z M231.503,221.647h-47.711v-0.381
		c0-7.115,5.788-12.903,12.903-12.903H218.6c7.115,0,12.903,5.789,12.903,12.903V221.647z"/>
</g>
<g>
</g>
<g>
</g>
<g>
</g>
<g>
</g>
<g>
</g>
<g>
</g>
<g>
</g>
<g>
</g>
<g>
</g>
<g>
</g>
<g>
</g>
<g>
</g>
<g>
</g>
<g>
</g>
<g>
</g>
</svg>
